<svg xmlns="http://www.w3.org/2000/svg" width="28" height="28" viewBox="0 0 28 28" fill="none">
  <path d="M13.9998 14.5835C12.9169 14.5835 11.8783 15.0137 11.1125 15.7795C10.3467 16.5453 9.9165 17.5839 9.9165 18.6668C9.9165 19.7498 10.3467 20.7884 11.1125 21.5542C11.8783 22.32 12.9169 22.7502 13.9998 22.7502C15.0828 22.7502 16.1214 22.32 16.8872 21.5542C17.653 20.7884 18.0832 19.7498 18.0832 18.6668C18.0832 17.5839 17.653 16.5453 16.8872 15.7795C16.1214 15.0137 15.0828 14.5835 13.9998 14.5835ZM12.2498 18.6668C12.2498 18.2027 12.4342 17.7576 12.7624 17.4294C13.0906 17.1012 13.5357 16.9168 13.9998 16.9168C14.464 16.9168 14.9091 17.1012 15.2373 17.4294C15.5655 17.7576 15.7498 18.2027 15.7498 18.6668C15.7498 19.131 15.5655 19.5761 15.2373 19.9043C14.9091 20.2325 14.464 20.4168 13.9998 20.4168C13.5357 20.4168 13.0906 20.2325 12.7624 19.9043C12.4342 19.5761 12.2498 19.131 12.2498 18.6668Z" fill="#4BC0C0" fillOpacity="0.5"/>
  <path d="M20.447 5.96888L16.7382 0.769043L3.101 11.6634L2.345 11.6552V11.6669H1.75V25.6669H26.25V11.6669H25.1277L22.8947 5.13471L20.447 5.96888ZM22.6625 11.6669H10.9632L19.677 8.69654L21.4527 8.12838L22.6625 11.6669ZM18.1417 6.75521L9.14667 9.82121L16.2703 4.13021L18.1417 6.75521ZM4.08333 21.1974V16.134C4.57554 15.9596 5.02263 15.6776 5.39198 15.3084C5.76133 14.9393 6.04364 14.4923 6.21833 14.0002H21.7817C21.9563 14.4925 22.2386 14.9396 22.6079 15.309C22.9773 15.6783 23.4244 15.9606 23.9167 16.1352V21.1985C23.4244 21.3732 22.9773 21.6554 22.6079 22.0248C22.2386 22.3941 21.9563 22.8413 21.7817 23.3335H6.22067C6.04588 22.8408 5.76329 22.3934 5.39352 22.0238C5.02375 21.6542 4.57613 21.3719 4.08333 21.1974Z" fill="#4BC0C0" fillOpacity="0.5"/>
</svg>