<svg xmlns="http://www.w3.org/2000/svg" width="22" height="19" viewBox="0 0 22 19" fill="none">
  <path d="M3.47656 2.87512H18.4766C18.6518 2.87504 18.8268 2.88615 19.0006 2.9084C18.9417 2.49486 18.7997 2.09752 18.583 1.74036C18.3664 1.3832 18.0797 1.07361 17.7402 0.830245C17.4007 0.586883 17.0154 0.414795 16.6076 0.324356C16.1998 0.233918 15.7779 0.227001 15.3673 0.304024L3.03125 2.41012H3.01719C2.24285 2.55819 1.55425 2.9963 1.09203 3.63496C1.7884 3.13965 2.622 2.87401 3.47656 2.87512ZM18.4766 4.00012H3.47656C2.68118 4.00099 1.91862 4.31734 1.3562 4.87976C0.79378 5.44218 0.477431 6.20474 0.476562 7.00012V16.0001C0.477431 16.7955 0.79378 17.5581 1.3562 18.1205C1.91862 18.6829 2.68118 18.9993 3.47656 19.0001H18.4766C19.2719 18.9993 20.0345 18.6829 20.5969 18.1205C21.1593 17.5581 21.4757 16.7955 21.4766 16.0001V7.00012C21.4757 6.20474 21.1593 5.44218 20.5969 4.87976C20.0345 4.31734 19.2719 4.00099 18.4766 4.00012ZM16.25 13.0001C15.9533 13.0001 15.6633 12.9121 15.4166 12.7473C15.17 12.5825 14.9777 12.3482 14.8642 12.0741C14.7506 11.8001 14.7209 11.4985 14.7788 11.2075C14.8367 10.9165 14.9796 10.6492 15.1893 10.4395C15.3991 10.2297 15.6664 10.0868 15.9574 10.0289C16.2483 9.97106 16.5499 10.0008 16.824 10.1143C17.0981 10.2278 17.3324 10.4201 17.4972 10.6668C17.662 10.9134 17.75 11.2034 17.75 11.5001C17.75 11.8979 17.592 12.2795 17.3107 12.5608C17.0294 12.8421 16.6478 13.0001 16.25 13.0001Z" fill="#FF900E"/>
</svg>