<svg xmlns="http://www.w3.org/2000/svg" width="21" height="20" viewBox="0 0 21 20" fill="none">
  <path d="M18.4707 5.11988L13.531 1.09935C11.7368 -0.36124 9.13162 -0.36124 7.33651 1.09935L2.39675 5.11988C1.22603 6.07326 0.554214 7.49292 0.554214 9.01353V15.0079C0.554214 17.763 2.77019 20.0039 5.49397 20.0039H8.45783V15.0069C8.45783 13.9055 9.34402 13.0111 10.4337 13.0111C11.5234 13.0111 12.4096 13.9065 12.4096 15.0069V20.0039H15.3735C18.0973 20.0039 20.3132 17.763 20.3132 15.0079V9.01353C20.3132 7.49292 19.6414 6.07326 18.4707 5.11988ZM18.3373 15.0079C18.3373 16.6595 17.0076 18.0031 15.3735 18.0031H14.3855V15.0069C14.3855 12.803 12.6132 11.0103 10.4337 11.0103C8.25431 11.0103 6.48193 12.803 6.48193 15.0069V18.0031H5.49397C3.8599 18.0031 2.53012 16.6595 2.53012 15.0079V9.01353C2.53012 8.10217 2.9332 7.25082 3.63464 6.67959L8.5744 2.65893C9.65226 1.78258 11.2162 1.78258 12.2931 2.65893L17.2328 6.67959C17.9353 7.25082 18.3383 8.10217 18.3383 9.01353V15.0079H18.3373Z" fill="#718096"/>
</svg>