<svg xmlns="http://www.w3.org/2000/svg" width="25" height="24" viewBox="0 0 25 24" fill="none">
  <path d="M7.62698 7.5C7.62698 4.743 9.84296 2.5 12.5667 2.5C15.2905 2.5 17.5065 4.743 17.5065 7.5C17.5065 10.257 15.2905 12.5 12.5667 12.5C9.84296 12.5 7.62698 10.257 7.62698 7.5ZM16.6341 13.571C16.0819 13.429 15.4812 13.5091 14.9843 13.7891C13.4846 14.6331 11.6489 14.6331 10.1492 13.7891C9.65325 13.5101 9.05161 13.431 8.49934 13.571C6.53134 14.074 5.1571 15.882 5.1571 17.967V18.978C5.1571 19.616 5.32504 20.2399 5.64415 20.7839C5.90398 21.2259 6.39107 21.501 6.9137 21.501H18.2188C18.7415 21.501 19.2285 21.227 19.4883 20.783C19.8074 20.24 19.9754 19.616 19.9754 18.978V17.967C19.9764 15.882 18.6021 14.074 16.6341 13.571Z" fill="#FF900E"/>
</svg>