<svg xmlns="http://www.w3.org/2000/svg" width="25" height="24" viewBox="0 0 25 24" fill="none">
  <path d="M12.5662 13C15.5627 13 17.9999 10.532 17.9999 7.5C17.9999 4.468 15.5627 2 12.5662 2C9.56975 2 7.13248 4.468 7.13248 7.5C7.13248 10.532 9.56975 13 12.5662 13ZM12.5662 4C14.473 4 16.024 5.57 16.024 7.5C16.024 9.43 14.473 11 12.5662 11C10.6595 11 9.10838 9.43 9.10838 7.5C9.10838 5.57 10.6595 4 12.5662 4ZM20.4698 17.967V18.978C20.4698 19.974 20.1102 20.929 19.4572 21.667C19.2615 21.888 18.9919 22 18.7202 22C18.486 22 18.2499 21.916 18.0612 21.745C17.6542 21.377 17.6206 20.744 17.9841 20.333C18.3121 19.962 18.493 19.48 18.493 18.978V17.967C18.493 16.568 17.5771 15.358 16.2671 15.025C16.0774 14.977 15.8749 15.001 15.7128 15.095C13.7557 16.197 11.3668 16.191 9.42845 15.101C9.25754 15.002 9.05602 14.977 8.86634 15.025C7.55335 15.358 6.6385 16.568 6.6385 17.967V18.978C6.6385 19.481 6.81931 19.962 7.14731 20.333C7.51088 20.744 7.4763 21.377 7.07025 21.745C6.66321 22.114 6.03884 22.078 5.67527 21.667C5.02224 20.929 4.6626 19.974 4.6626 18.978V17.967C4.6626 15.65 6.19296 13.642 8.38424 13.085C9.06296 12.91 9.798 13.011 10.3987 13.358C11.7314 14.106 13.3921 14.1121 14.7436 13.3521C15.3354 13.0091 16.0705 12.909 16.7502 13.084C18.9395 13.642 20.4698 15.649 20.4698 17.967Z" fill="#718096"/>
</svg>