<svg xmlns="http://www.w3.org/2000/svg" width="25" height="24" viewBox="0 0 25 24" fill="none">
  <path d="M12.5181 13C15.2419 13 17.4578 10.757 17.4578 8C17.4578 5.243 15.2419 3 12.5181 3C9.79429 3 7.57831 5.243 7.57831 8C7.57831 10.757 9.79429 13 12.5181 13ZM12.5181 5C14.1521 5 15.4819 6.346 15.4819 8C15.4819 9.654 14.1521 11 12.5181 11C10.884 11 9.55421 9.654 9.55421 8C9.55421 6.346 10.884 5 12.5181 5ZM19.4337 17.4V18.266C19.4337 19.155 19.1127 20.007 18.5298 20.666C18.3352 20.887 18.0645 20.999 17.7938 20.999C17.5586 20.999 17.3225 20.915 17.1347 20.744C16.7287 20.375 16.6941 19.743 17.0577 19.332C17.3165 19.04 17.4578 18.661 17.4578 18.266V17.4C17.4578 16.266 16.7169 15.286 15.6568 15.016C15.5274 14.985 15.394 14.999 15.2873 15.061C13.5603 16.034 11.4649 16.027 9.76068 15.068C9.64311 15 9.50777 14.983 9.3823 15.016C8.31926 15.286 7.57831 16.266 7.57831 17.4V18.266C7.57831 18.662 7.7206 19.04 7.97846 19.332C8.34202 19.743 8.30744 20.375 7.9014 20.744C7.49634 21.112 6.87289 21.078 6.50636 20.666C5.92347 20.007 5.60241 19.154 5.60241 18.266V17.4C5.60241 15.347 6.95785 13.569 8.89918 13.077C9.51566 12.916 10.1845 13.009 10.7308 13.327C11.8265 13.942 13.1968 13.9489 14.3161 13.3199C14.8526 13.0079 15.5224 12.922 16.1399 13.077C18.0783 13.569 19.4337 15.348 19.4337 17.4ZM17.5151 3.83801C17.6959 3.31701 18.263 3.045 18.7748 3.229C20.3515 3.792 21.4096 5.308 21.4096 7C21.4096 8.137 20.9295 9.22396 20.0927 9.98096C19.905 10.152 19.6679 10.236 19.4337 10.236C19.163 10.236 18.8923 10.124 18.6977 9.90295C18.3341 9.49195 18.3687 8.85897 18.7748 8.49097C19.1937 8.11197 19.4337 7.568 19.4337 7C19.4337 6.154 18.9042 5.39604 18.1168 5.11304C17.6021 4.93004 17.3323 4.35801 17.5151 3.83801ZM22.3976 14.834V15.556C22.3976 16.109 21.956 16.556 21.4096 16.556C20.8633 16.556 20.4217 16.109 20.4217 15.556V14.834C20.4217 13.966 19.8556 13.215 19.0445 13.009C18.515 12.874 18.1939 12.331 18.3263 11.796C18.4596 11.259 19.001 10.933 19.5246 11.069C21.217 11.499 22.3976 13.047 22.3976 14.834ZM4.94345 10.426C4.10665 9.66703 3.6265 8.57995 3.6265 7.44495C3.6265 5.75395 4.68558 4.23695 6.26136 3.67395C6.77312 3.48995 7.34023 3.76196 7.52102 4.28296C7.7038 4.80396 7.43408 5.37498 6.91935 5.55798C6.13196 5.83998 5.60241 6.59895 5.60241 7.44495C5.60241 8.01295 5.84247 8.55604 6.26136 8.93604C6.66741 9.30504 6.70199 9.93702 6.33842 10.348C6.14281 10.569 5.87313 10.681 5.60144 10.681C5.3673 10.681 5.13116 10.597 4.94345 10.426ZM5.99267 13.453C5.18156 13.659 4.61445 14.41 4.61445 15.278V16C4.61445 16.553 4.17185 17 3.6265 17C3.08115 17 2.63855 16.553 2.63855 16V15.278C2.63855 13.492 3.81913 11.9429 5.51051 11.5129C6.03709 11.3799 6.57652 11.703 6.70891 12.239C6.84228 12.775 6.52122 13.318 5.99267 13.453Z" fill="#718096"/>
</svg>