<svg xmlns="http://www.w3.org/2000/svg" width="25" height="24" viewBox="0 0 25 24" fill="none">
  <path d="M20.7674 6.70996C20.7674 8.36996 19.6807 9.77999 18.1889 10.24C18.3569 9.68999 18.4458 9.1 18.4458 8.5C18.4458 6.31 17.28 4.3901 15.5511 3.3501C16.0253 3.1301 16.5489 3 17.1121 3C19.1275 3 20.7674 4.65996 20.7674 6.70996ZM20.0265 11.3C19.6115 11.18 19.1571 11.24 18.7915 11.45C18.3568 11.69 17.8925 11.8301 17.4183 11.8601C17.2207 12.1601 16.9935 12.45 16.7268 12.71C18.6335 13.34 20.0265 15.01 20.3426 17H21.0243C21.4788 17 21.8937 16.7601 22.1012 16.3701C22.2988 16.0001 22.3976 15.5799 22.3976 15.1599V14.45C22.3976 12.96 21.4195 11.67 20.0265 11.3ZM9.48505 3.3501C9.01083 3.1301 8.4872 3 7.92407 3C5.90865 3 4.26869 4.65996 4.26869 6.70996C4.26869 8.36996 5.35543 9.77999 6.84723 10.24C6.67928 9.68999 6.59036 9.1 6.59036 8.5C6.59036 6.31 7.75613 4.3901 9.48505 3.3501ZM8.30938 12.71C8.04264 12.45 7.81539 12.1601 7.61781 11.8601C7.14359 11.8301 6.6793 11.69 6.2446 11.45C5.87906 11.24 5.4246 11.18 5.00966 11.3C3.61665 11.67 2.63855 12.96 2.63855 14.45V15.1599C2.63855 15.5799 2.73733 16.0001 2.93492 16.3701C3.14239 16.7601 3.55735 17 4.00193 17H4.69351C5.00965 15.01 6.40264 13.34 8.30938 12.71ZM16.055 14.0701C15.887 14.0301 15.7091 14 15.5313 14C15.1954 14 14.8496 14.09 14.5532 14.26C13.921 14.61 13.2195 14.79 12.5181 14.79C11.8166 14.79 11.1152 14.61 10.4829 14.26C10.1865 14.09 9.84073 14 9.50483 14C9.327 14 9.14914 14.0301 8.98118 14.0701C7.28191 14.5301 6.09638 16.0999 6.09638 17.8999V18.77C6.09638 19.28 6.22481 19.79 6.46192 20.23C6.70891 20.71 7.20288 21 7.75613 21H17.28C17.8333 21 18.3272 20.71 18.5742 20.23C18.8113 19.79 18.9398 19.28 18.9398 18.77V17.8999C18.9398 16.0999 17.7542 14.5301 16.055 14.0701ZM16.9639 8.5C16.9639 6.015 14.9731 4 12.5181 4C10.063 4 8.07228 6.015 8.07228 8.5C8.07228 10.985 10.063 13 12.5181 13C14.9731 13 16.9639 10.985 16.9639 8.5Z" fill="#FF900E"/>
</svg>