<svg xmlns="http://www.w3.org/2000/svg" width="20" height="20" viewBox="0 0 20 20" fill="none">
  <path d="M16.9581 5.59163C16.9581 6.97497 16.0415 8.14999 14.7832 8.53333C14.9248 8.07499 14.9998 7.58333 14.9998 7.08333C14.9998 5.25833 14.0165 3.65841 12.5582 2.79175C12.9582 2.60841 13.3999 2.5 13.8749 2.5C15.5749 2.5 16.9581 3.8833 16.9581 5.59163ZM16.3331 9.41671C15.9831 9.31671 15.5998 9.36663 15.2915 9.54163C14.9248 9.74163 14.5332 9.85842 14.1332 9.88342C13.9665 10.1334 13.7748 10.375 13.5498 10.5916C15.1582 11.1166 16.3332 12.5083 16.5998 14.1667H17.1748C17.5582 14.1667 17.9082 13.9668 18.0832 13.6418C18.2498 13.3334 18.3332 12.9833 18.3332 12.6333V12.0416C18.3332 10.8 17.5082 9.72504 16.3331 9.41671ZM7.4415 2.79175C7.0415 2.60841 6.59982 2.5 6.12482 2.5C4.42482 2.5 3.04152 3.8833 3.04152 5.59163C3.04152 6.97497 3.95818 8.14999 5.21651 8.53333C5.07485 8.07499 4.99984 7.58333 4.99984 7.08333C4.99984 5.25833 5.98316 3.65841 7.4415 2.79175ZM6.44983 10.5916C6.22483 10.375 6.03315 10.1334 5.86649 9.88342C5.46649 9.85842 5.07486 9.74163 4.70819 9.54163C4.39986 9.36663 4.01652 9.31671 3.66652 9.41671C2.49152 9.72504 1.6665 10.8 1.6665 12.0416V12.6333C1.6665 12.9833 1.74983 13.3334 1.91649 13.6418C2.09149 13.9668 2.44151 14.1667 2.81651 14.1667H3.39985C3.66652 12.5083 4.8415 11.1166 6.44983 10.5916ZM12.9832 11.7251C12.8415 11.6917 12.6915 11.6667 12.5415 11.6667C12.2582 11.6667 11.9665 11.7417 11.7165 11.8833C11.1832 12.175 10.5915 12.325 9.99984 12.325C9.40817 12.325 8.81651 12.175 8.28317 11.8833C8.03317 11.7417 7.74151 11.6667 7.45818 11.6667C7.30818 11.6667 7.15816 11.6917 7.01649 11.7251C5.58316 12.1084 4.58317 13.4166 4.58317 14.9166V15.6417C4.58317 16.0667 4.6915 16.4916 4.8915 16.8583C5.09983 17.2583 5.5165 17.5 5.98316 17.5H14.0165C14.4832 17.5 14.8998 17.2583 15.1082 16.8583C15.3082 16.4916 15.4165 16.0667 15.4165 15.6417V14.9166C15.4165 13.4166 14.4165 12.1084 12.9832 11.7251ZM13.7498 7.08333C13.7498 5.0125 12.0707 3.33333 9.99984 3.33333C7.929 3.33333 6.24984 5.0125 6.24984 7.08333C6.24984 9.15417 7.929 10.8333 9.99984 10.8333C12.0707 10.8333 13.7498 9.15417 13.7498 7.08333Z" fill="#4BC0C0"/>
</svg>