<svg xmlns="http://www.w3.org/2000/svg" width="20" height="20" viewBox="0 0 20 20" fill="none">
  <path d="M5.83382 6.24967C5.83382 3.95217 7.70299 2.08301 10.0005 2.08301C12.298 2.08301 14.1672 3.95217 14.1672 6.24967C14.1672 8.54717 12.298 10.4163 10.0005 10.4163C7.70299 10.4163 5.83382 8.54717 5.83382 6.24967ZM13.4313 11.3089C12.9655 11.1905 12.4588 11.2572 12.0397 11.4906C10.7747 12.1939 9.2263 12.1939 7.9613 11.4906C7.54297 11.2581 7.03548 11.1922 6.56965 11.3089C4.90965 11.728 3.75049 13.2347 3.75049 14.9722V15.8147C3.75049 16.3464 3.89214 16.8663 4.16131 17.3196C4.38047 17.688 4.79133 17.9172 5.23217 17.9172H14.768C15.2088 17.9172 15.6196 17.6888 15.8388 17.3188C16.108 16.8663 16.2497 16.3464 16.2497 15.8147V14.9722C16.2505 13.2347 15.0913 11.728 13.4313 11.3089Z" fill="black" fillOpacity="0.48"/>
</svg>